rat_emergent_best
version=1
nRows=41
nColumns=15
inDegrees=yes
endheader
time	sacrum_pitch	sacrum_roll	sacrum_yaw	sacrum_x	sacrum_y	sacrum_z	sacroiliac_flx	hip_flx	hip_add	hip_int	knee_flx	ankle_flx	ankle_add	ankle_int
3.000000	22.370217	0.000000	0.000000	0.000000	0.050000	0.000000	3.700000	33.751391	-10.000000	0.000000	-132.740396	18.002174	-5.000000	0.000000
3.000800	22.370217	0.000000	0.000000	0.000000	0.050000	0.000000	3.700000	33.892203	-10.000000	0.000000	-132.807244	18.005408	-5.000000	0.000000
3.001600	22.370217	0.000000	0.000000	0.000000	0.050000	0.000000	3.700000	34.033370	-10.000000	0.000000	-132.874132	18.008621	-5.000000	0.000000
3.002400	22.370217	0.000000	0.000000	0.000000	0.050000	0.000000	3.700000	34.174889	-10.000000	0.000000	-132.941061	18.011814	-5.000000	0.000000
3.003200	22.370217	0.000000	0.000000	0.000000	0.050000	0.000000	3.700000	34.316756	-10.000000	0.000000	-133.008030	18.014986	-5.000000	0.000000
3.004000	22.370217	0.000000	0.000000	0.000000	0.050000	0.000000	3.700000	34.458969	-10.000000	0.000000	-133.075039	18.018135	-5.000000	0.000000
3.004800	22.370217	0.000000	0.000000	0.000000	0.050000	0.000000	3.700000	34.601525	-10.000000	0.000000	-133.142087	18.021263	-5.000000	0.000000
3.005600	22.370217	0.000000	0.000000	0.000000	0.050000	0.000000	3.700000	34.744421	-10.000000	0.000000	-133.209175	18.024368	-5.000000	0.000000
3.006400	22.370217	0.000000	0.000000	0.000000	0.050000	0.000000	3.700000	34.887656	-10.000000	0.000000	-133.276302	18.027450	-5.000000	0.000000
3.007200	22.370217	0.000000	0.000000	0.000000	0.050000	0.000000	3.700000	35.031226	-10.000000	0.000000	-133.343467	18.030508	-5.000000	0.000000
3.008000	22.370217	0.000000	0.000000	0.000000	0.050000	0.000000	3.700000	35.175125	-10.000000	0.000000	-133.410632	18.033529	-5.000000	0.000000
3.008800	22.370217	0.000000	0.000000	0.000000	0.050000	0.000000	3.700000	35.319348	-10.000000	0.000000	-133.477744	18.036508	-5.000000	0.000000
3.009600	22.370217	0.000000	0.000000	0.000000	0.050000	0.000000	3.700000	35.463892	-10.000000	0.000000	-133.544805	18.039447	-5.000000	0.000000
3.010400	22.370217	0.000000	0.000000	0.000000	0.050000	0.000000	3.700000	35.608752	-10.000000	0.000000	-133.611819	18.042346	-5.000000	0.000000
3.011200	22.370217	0.000000	0.000000	0.000000	0.050000	0.000000	3.700000	35.753924	-10.000000	0.000000	-133.678793	18.045203	-5.000000	0.000000
3.012000	22.370217	0.000000	0.000000	0.000000	0.050000	0.000000	3.700000	35.899404	-10.000000	0.000000	-133.745731	18.048020	-5.000000	0.000000
3.012800	22.370217	0.000000	0.000000	0.000000	0.050000	0.000000	3.700000	36.045189	-10.000000	0.000000	-133.812638	18.050795	-5.000000	0.000000
3.013600	22.370217	0.000000	0.000000	0.000000	0.050000	0.000000	3.700000	36.191273	-10.000000	0.000000	-133.879518	18.053529	-5.000000	0.000000
3.014400	22.370217	0.000000	0.000000	0.000000	0.050000	0.000000	3.700000	36.337653	-10.000000	0.000000	-133.946373	18.056221	-5.000000	0.000000
3.015200	22.370217	0.000000	0.000000	0.000000	0.050000	0.000000	3.700000	36.484327	-10.000000	0.000000	-134.013207	18.058871	-5.000000	0.000000
3.016000	22.370217	0.000000	0.000000	0.000000	0.050000	0.000000	3.700000	36.631291	-10.000000	0.000000	-134.080023	18.061479	-5.000000	0.000000
3.016800	22.370217	0.000000	0.000000	0.000000	0.050000	0.000000	3.700000	36.778543	-10.000000	0.000000	-134.146823	18.064045	-5.000000	0.000000
3.017600	22.370217	0.000000	0.000000	0.000000	0.050000	0.000000	3.700000	36.926081	-10.000000	0.000000	-134.213609	18.066568	-5.000000	0.000000
3.018400	22.370217	0.000000	0.000000	0.000000	0.050000	0.000000	3.700000	37.073901	-10.000000	0.000000	-134.280385	18.069048	-5.000000	0.000000
3.019200	22.370217	0.000000	0.000000	0.000000	0.050000	0.000000	3.700000	37.222002	-10.000000	0.000000	-134.347151	18.071486	-5.000000	0.000000
3.020000	22.370217	0.000000	0.000000	0.000000	0.050000	0.000000	3.700000	37.370383	-10.000000	0.000000	-134.413910	18.073880	-5.000000	0.000000
3.020800	22.370217	0.000000	0.000000	0.000000	0.050000	0.000000	3.700000	37.519040	-10.000000	0.000000	-134.480663	18.076230	-5.000000	0.000000
3.021600	22.370217	0.000000	0.000000	0.000000	0.050000	0.000000	3.700000	37.667959	-10.000000	0.000000	-134.547260	18.078472	-5.000000	0.000000
3.022400	22.370217	0.000000	0.000000	0.000000	0.050000	0.000000	3.700000	37.817115	-10.000000	0.000000	-134.613483	18.080586	-5.000000	0.000000
3.023200	22.370217	0.000000	0.000000	0.000000	0.050000	0.000000	3.700000	37.966506	-10.000000	0.000000	-134.679331	18.082577	-5.000000	0.000000
3.024000	22.370217	0.000000	0.000000	0.000000	0.050000	0.000000	3.700000	38.116126	-10.000000	0.000000	-134.744826	18.084445	-5.000000	0.000000
3.024800	22.370217	0.000000	0.000000	0.000000	0.050000	0.000000	3.700000	38.265967	-10.000000	0.000000	-134.809990	18.086194	-5.000000	0.000000
3.025600	22.370217	0.000000	0.000000	0.000000	0.050000	0.000000	3.700000	38.416023	-10.000000	0.000000	-134.874839	18.087822	-5.000000	0.000000
3.026400	22.370217	0.000000	0.000000	0.000000	0.050000	0.000000	3.700000	38.566286	-10.000000	0.000000	-134.939392	18.089333	-5.000000	0.000000
3.027200	22.370217	0.000000	0.000000	0.000000	0.050000	0.000000	3.700000	38.716752	-10.000000	0.000000	-135.003661	18.090726	-5.000000	0.000000
3.028000	22.370217	0.000000	0.000000	0.000000	0.050000	0.000000	3.700000	38.867414	-10.000000	0.000000	-135.067660	18.092003	-5.000000	0.000000
3.028800	22.370217	0.000000	0.000000	0.000000	0.050000	0.000000	3.700000	39.018268	-10.000000	0.000000	-135.131401	18.093165	-5.000000	0.000000
3.029600	22.370217	0.000000	0.000000	0.000000	0.050000	0.000000	3.700000	39.169312	-10.000000	0.000000	-135.194894	18.094214	-5.000000	0.000000
3.030400	22.370217	0.000000	0.000000	0.000000	0.050000	0.000000	3.700000	39.320541	-10.000000	0.000000	-135.258149	18.095150	-5.000000	0.000000
3.031200	22.370217	0.000000	0.000000	0.000000	0.050000	0.000000	3.700000	39.472056	-10.000000	0.000000	-135.320867	18.096960	-5.000000	0.000000
3.032000	22.370217	0.000000	0.000000	0.000000	0.050000	0.000000	3.700000	39.624992	-10.000000	0.000000	-135.381776	18.100406	-5.000000	0.000000
